<?xml version="1.0" ?>
<!-- Created with Inkscape (http://www.inkscape.org/) -->
<svg height="32in" id="svg2" inkscape:version="0.91 r13725" sodipodi:docname="minneapolis_neighborhoods.svg" version="1.1" viewBox="0 0 1890 2880" width="21in" xmlns="http://www.w3.org/2000/svg" xmlns:cc="http://creativecommons.org/ns#" xmlns:dc="http://purl.org/dc/elements/1.1/" xmlns:inkscape="http://www.inkscape.org/namespaces/inkscape" xmlns:rdf="http://www.w3.org/1999/02/22-rdf-syntax-ns#" xmlns:sodipodi="http://sodipodi.sourceforge.net/DTD/sodipodi-0.dtd" xmlns:svg="http://www.w3.org/2000/svg">
	
  
	<defs id="defs4"/>
	
  
	<sodipodi:namedview bordercolor="#666666" borderopacity="1.0" id="base" inkscape:current-layer="layer2" inkscape:cx="875.43965" inkscape:cy="291.59085" inkscape:document-units="px" inkscape:pageopacity="0.0" inkscape:pageshadow="2" inkscape:window-height="1084" inkscape:window-maximized="0" inkscape:window-width="1795" inkscape:window-x="112" inkscape:window-y="45" inkscape:zoom="0.92454776" pagecolor="#ffffff" showgrid="false" units="in" width="11in"/>
	
  
	<metadata id="metadata7">
		
    
		<rdf:RDF>
			
      
			<cc:Work rdf:about="">
				
        
				<dc:format>image/svg+xml</dc:format>
				
        
				<dc:type rdf:resource="http://purl.org/dc/dcmitype/StillImage"/>
				
        
				<dc:title/>
				
      
			</cc:Work>
			
    
		</rdf:RDF>
		
  
	</metadata>
	
  
	<g id="layer2" inkscape:groupmode="layer" inkscape:label="Layer 2" style="display:inline">
		
    
		<path d="m 737.24515,545.58937 c 0,0 15.18116,43.72094 22.72555,57.07079 -18.65632,-3.93775 0.26888,3.134 1.43555,11.38281 l 7.82813,31.74414 c -5e-5,0 19.5664,40.87535 19.5664,59.13867 0,18.26333 15.6543,68.70508 15.6543,68.70508 l 0.15234,0.14844 1.7168,1.30078 2.23242,2.76172 124,0 0,-59.91407 -1.30273,0 0,-66.42578 6.51171,0 0,-88.5664 -6.51171,0 0,-16.93164 z" id="marshal terrace" sodipodi:nodetypes="ccccsccccccccccccc" style="fill:#ffcc00;fill-opacity:1;stroke:none;stroke-width:2;stroke-miterlimit:4;stroke-dasharray:none;stroke-opacity:1"/>
		
    
		<rect height="202.16609" id="fulton" style="fill:#ccff00;stroke:none;stroke-width:2.5;stroke-miterlimit:4;stroke-dasharray:none;stroke-opacity:1" width="226.18582" x="196.16116" y="2276.5042"/>
		
    
		<path d="m 308.25726,2479.1556 0,225.6966 159.07594,0 0,-9.3774 3.71665,0 0,-10.9583 4.62288,-2.6879 0,-7.9694 3.44713,-0.93 0,-23.7333 4.27327,0 0,-170.0403 -175.13587,0 z" id="armatage" style="fill:#ffff00;stroke:none;stroke-width:2.5;stroke-miterlimit:4;stroke-dasharray:none;stroke-opacity:1"/>
		
    
		<path d="m 483.39648,2480.7129 0,168.8594 -4.27343,0 0,23.5742 -3.44727,0.9238 0,7.916 -4.62305,2.6699 0,10.8848 -3.71679,0 0,9.2735 169.34961,0 0,-0.2403 -69.16407,0 0,-5.498 2.94727,0 0,-6.4824 2.94727,0 0,-4.7149 2.94531,0 0,-2.3574 2.35742,0 0,-2.3574 1.06055,-1.836 3.47656,-2.0078 0,-6.7637 5.48242,0 3.24024,-3.2402 1.44921,0.3867 0,-6.5761 4.16602,-1.1153 0,-3.5996 2.88086,-0.7715 0,-4.5312 0.0488,0 3.59375,-0.9629 1.49609,-5.5781 3.16211,0 3.21094,-3.2129 2.94726,-2.9453 0,-3.2129 3.91602,-2.2598 0.94336,-3.5234 0,-3.0567 4.50976,-4.5097 0,-1.9727 5.09766,0 0,-11.1973 3.86133,-2.2285 0,-4.2539 2.59375,-0.6953 0,-11.6816 4.35547,-7.543 0.68359,-2.5527 0,-9.3516 3.19531,1.8437 0,-14.8086 3.26368,-3.2636 0.53125,-1.9824 3.72461,-2.1504 2.15039,-8.0313 0,-63.0254 0.32812,0 0,-0.2402 -170.69141,0 z" id="kenny" style="fill:#ff00ff;stroke:none;stroke-width:2.5;stroke-miterlimit:4;stroke-dasharray:none;stroke-opacity:1"/>
		
    
		<path d="m 653.75977,2480.9531 0,63.0254 -2.15039,8.0313 -3.72461,2.1504 -0.53125,1.9824 -3.26368,3.2636 0,14.8086 -3.19531,-1.8437 0,9.3516 -0.68359,2.5527 -4.35547,7.543 0,11.6816 -2.59375,0.6953 0,4.2539 -3.86133,2.2285 0,11.1973 -5.09766,0 0,1.9727 -4.50976,4.5097 0,3.0567 -0.94336,3.5234 -3.91602,2.2598 0,3.2129 -2.94726,2.9453 -3.21094,3.2129 -3.16211,0 -1.49609,5.5781 -3.59375,0.9629 -0.0488,0 0,4.5312 -2.88086,0.7715 0,3.5996 -4.16602,1.1153 0,6.5761 -1.44921,-0.3867 -3.24024,3.2402 -5.48242,0 0,6.7637 -3.47656,2.0078 -1.06055,1.836 0,2.3574 -2.35742,0 0,2.3574 -2.94531,0 0,4.7149 -2.94727,0 0,6.4824 -2.94727,0 0,5.498 236.14649,0 0,-202.9219 -11.61133,0 0,-4.125 -12.9668,0 0,-4.125 -20.03711,0 0,-1.7695 -20.625,0 -1.3164,-2.2773 -16.95313,0 0,-2.4375 -8.83984,0 0,-2.3575 -16.50195,0 0,-3.6074 -41.05664,0 z" id="windom" style="fill:#00ffff;stroke:none;stroke-width:2.5;stroke-miterlimit:4;stroke-dasharray:none;stroke-opacity:1"/>
		
    
		<path d="m 856.88086,2498.7051 0,5.3047 -3.53516,0 0,3.5351 -5.89258,0 0,1.9043 -17.32812,0 -2.12109,-3.6719 -10.01758,0 0,-1.7675 -7.66211,0 0,-2.3575 -6.77734,0 c -0.16323,0 -0.29493,0.1317 -0.29493,0.295 l 0,202.1386 c 0,0.1633 0.13171,0.295 0.29493,0.295 l 268.43942,0 0,-4.125 -20.6269,0 0,-25.3418 -11.7871,0 0,-27.1094 -10.6075,0 0,-18.2695 -5.3027,0 0,-2.3575 -4.1269,0 0,-24.75 6.4843,0 0,-8.2519 73.0762,0 0,1.1797 5.3027,0 0,22.9824 6.4825,0 0,-1.4727 0,-10.9023 -0.8829,0 c -0.1632,0 -0.2949,-0.1317 -0.2949,-0.2949 l 0,-104.0157 -225.71287,0 0,-2.6523 c 0,-0.1632 -0.1317,-0.2949 -0.29492,-0.2949 l -26.81445,0 z" id="diamond lake" style="fill:#ffd42a;stroke:none;stroke-width:2.5;stroke-miterlimit:4;stroke-dasharray:none;stroke-opacity:1"/>
		
    
		<path d="m 1110.0073,2472.1029 c -0.1632,0 -0.2949,0.1341 -0.2949,0.3004 l 0,132.6945 c 0,0.1663 0.1317,0.3005 0.2949,0.3005 l 0.8829,0 0,11.1077 c 0,0.1664 0.1317,0.3006 0.2948,0.3006 l 25.3401,0 c 0.1632,0 0.2949,-0.1342 0.2949,-0.3006 l 0,-11.1077 0,-4.5032 c 0,-0.1663 0.1317,-0.3006 0.2949,-0.3006 l 8.2494,0 c 0.1632,0 0.2949,0.1343 0.2949,0.3006 l 0,4.5032 7.6597,0 0,-5.7051 c 0,-0.1663 0.1317,-0.2985 0.2949,-0.2985 l 3.8298,0 0,-4.5032 c 0,-0.1663 0.1317,-0.3005 0.2949,-0.3005 l 5.8942,0 c 0.1632,0 0.2949,0.1342 0.2949,0.3005 l 0,4.5032 0.2949,0 c 0.1632,0 0.2929,0.1322 0.2929,0.2985 l 0,5.7051 4.7145,0 0,-5.7051 c 0,-0.1663 0.1317,-0.2985 0.2949,-0.2985 l 11.1966,0 c 0.1631,0 0.2948,0.1322 0.2948,0.2985 l 0,5.7051 96.0542,0 0,12.0092 -29.17,0 c -0.1632,0 -0.2949,0.1342 -0.2949,0.3005 l 0,17.4119 c 0,0.1663 0.1317,0.3005 0.2949,0.3005 l 31.2323,0 c 0.1632,0 0.2949,-0.1342 0.2949,-0.3005 l 0,-6.3041 6.7768,0 c 0.1632,0 0.295,-0.1342 0.295,-0.3006 l 0,-23.1169 93.1069,0 0,-3.9023 c 0,-0.1663 0.1317,-0.3004 0.295,-0.3004 l 6.7769,0 0,-128.7923 c 0,-0.1663 -0.1317,-0.3004 -0.2949,-0.3004 l -276.376,0 z" id="wenonah" style="fill:#c83737;stroke:none;stroke-width:2.5;stroke-miterlimit:4;stroke-dasharray:none;stroke-opacity:1"/>
		
    
		<path d="m 1386.9805,2473.3633 c -0.1632,0 -0.293,0.1317 -0.293,0.2949 l 0,128.7695 12.6699,0 2.3574,0 9.7247,0 0,-3.5371 3.5351,0 0,-2.9472 3.5352,0 0,-2.9454 5.8945,0 0,-2.6523 c 0,-0.1632 0.1317,-0.2949 0.2949,-0.2949 l 2.3574,0 c 0.1633,0 0.293,0.1317 0.293,0.2949 l 0,12.082 0.2949,0 c 0.1632,0 0.295,0.1298 0.295,0.293 l 0,2.9473 c 0,0.1632 -0.1318,0.2949 -0.295,0.2949 l -0.2949,0 0,2.0625 c 0,0.1632 -0.1297,0.2949 -0.293,0.2949 l -2.3574,0 c -0.1632,0 -0.2949,-0.1317 -0.2949,-0.2949 l 0,-2.0625 -22.3945,0 0,2.6523 c 0,0.1633 -0.1317,0.295 -0.295,0.295 l -15.0273,0 0,12.375 5.3027,0 0,4.125 5.3047,0 0,1.1796 2.9473,0 0,1.7676 2.3555,0 0,3.5352 8.2519,0 0,4.1269 2.3574,0 0,2.3555 14.1426,0 0,-16.7949 c 0,-0.1632 0.1317,-0.2949 0.2949,-0.2949 l 21.2168,0 c 0.1632,0 0.2949,0.1317 0.2949,0.2949 l 0,35.6543 6.4825,0 0,3.5351 6.4824,0 0,1.7696 59.5215,0 0,-44.4942 c 0,-0.1632 0.1317,-0.2949 0.2949,-0.2949 l 34.4746,0 0,-144.0918 c 0,-0.1632 -0.1297,-0.2949 -0.293,-0.2949 l -169.1386,0 z" id="morris park" style="fill:#aa8800;stroke:none;stroke-width:2.5;stroke-miterlimit:4;stroke-dasharray:none;stroke-opacity:1"/>
		
    
		<rect height="171.07095" id="keewaydin" ry="0.2959207" style="fill:#ff7f2a;stroke:none;stroke-width:2.5;stroke-miterlimit:4;stroke-dasharray:none;stroke-opacity:1" width="276.39001" x="1109.7052" y="2302.4617"/>
		
    
		<path d="m 1110.5879,2134.502 c -0.1632,0 -0.2949,0.1297 -0.2949,0.2929 l 0,167.3692 c 0,0.1632 0.1317,0.2949 0.2949,0.2949 l 365.543,0 -40.5293,-45.9668 -61.2754,-121.9902 -92.5391,0 0,27.4023 c 0,0.1632 -0.1317,0.2949 -0.2949,0.2949 l -156.7617,0 c -0.1632,0 -0.295,-0.1317 -0.295,-0.2949 l 0,-27.4023 -13.8476,0 z" id="ericsson" style="fill:#c87137;stroke:none;stroke-width:2.5;stroke-miterlimit:4;stroke-dasharray:none;stroke-opacity:1"/>
		
    
		<path d="m 1385.2129,2301.8711 c -0.1632,0 -0.2949,0.1297 -0.2949,0.293 l 0,170.9062 c 0,0.1632 0.1317,0.2949 0.2949,0.2949 l 291.4238,0 c -1.0284,-1.3002 -2.0181,-2.6669 -2.9472,-4.1269 -16.5012,-25.9304 -71.8985,-50.6817 -71.8985,-50.6817 l -0.5898,-3.5351 c 0,0 -20.6261,-6e-4 -24.1621,-0.5899 -3.5359,-0.5894 -21.2149,-24.7519 -21.2149,-24.7519 l -21.8047,-23.5723 -57.7558,-60.7012 -0.2715,-3.5351 -90.7793,0 z" id="minnehaha" style="fill:#ffcc00;stroke:none;stroke-width:2.5;stroke-miterlimit:4;stroke-dasharray:none;stroke-opacity:1"/>
		
    
		<path d="m 1565.252,2068.4961 0,3.5371 -4.7129,1.7676 -0.074,1.1777 -214.8053,0 29.1999,60.584 60.7422,120.9297 40.0117,45.3789 0.3789,0 0.037,0.4727 0.1016,0.1152 -0.094,0 0.2266,2.9472 57.7558,60.7012 21.8047,23.5723 c 0,0 17.679,24.1625 21.2149,24.7519 3.536,0.5893 24.1621,0.5899 24.1621,0.5899 l 0.5898,3.5351 c 0,0 55.3973,24.7513 71.8985,50.6817 0.8493,1.3347 1.7535,2.584 2.6875,3.7832 l 26.7792,0.3437 c 1e-4,0 0.3493,0.2351 0.5176,0.3496 l 1.8067,-1.4179 c -4.3903,-3.8549 -11.6929,-9.9672 -23.541,-19.5586 -49.5035,-40.0742 -56.5744,-91.9345 -58.9317,-173.2617 -2.3574,-81.3271 17.0893,-167.9596 16.5,-179.7461 -0.5893,-11.7866 -4.7148,-24.752 -4.7148,-24.752 l -47.1465,0 0,-1.1777 0,-3.5371 -6.4824,-0.5879 -2.3575,-1.1797 z" id="hiawatha" sodipodi:nodetypes="cccccccccccccccccccccccsssccccccc" style="fill:#c8ab37;fill-rule:evenodd;stroke:none;stroke-width:2.5;stroke-linecap:butt;stroke-linejoin:miter;stroke-miterlimit:4;stroke-dasharray:none;stroke-opacity:1"/>
		
    
		<rect height="314.37704" id="linden hills" style="fill:#ff5555;stroke:none;stroke-width:2.5;stroke-miterlimit:4;stroke-dasharray:none;stroke-opacity:1" width="225.70445" x="196.40186" y="1962.0525"/>
		
    
		<rect height="167.39369" id="west calhoun" style="fill:#c83737;stroke:none;stroke-width:2.5;stroke-miterlimit:4;stroke-dasharray:none;stroke-opacity:1" width="226.36522" x="196.07147" y="1796.2404"/>
		
    
		<rect height="167.91354" id="CARAG" style="fill:#e9c6af;stroke:none;stroke-width:2.5;stroke-miterlimit:4;stroke-dasharray:none;stroke-opacity:1" width="115.19132" x="539.50525" y="1795.9803"/>
		
    
		<rect height="284.58801" id="east harriet" style="fill:#e5ff80;stroke:none;stroke-width:2.5;stroke-miterlimit:4;stroke-dasharray:none;stroke-opacity:1" width="231.10599" x="422.36047" y="1964.5293"/>
		
    
		<rect height="170.24919" id="lyndale" style="fill:#ff6600;stroke:none;stroke-width:2.5;stroke-miterlimit:4;stroke-dasharray:none;stroke-opacity:1" width="149.96054" x="654.64478" y="1793.5535"/>
		
    
		<path d="m 654.86914,2248.2969 0,232.6562 39.94727,0 0,3.6074 16.50195,0 0,2.3575 8.83984,0 0,2.4375 16.95313,0 1.3164,2.2773 20.625,0 0,1.7695 20.03711,0 0,4.125 12.9668,0 0,4.125 11.61133,0 0,2.5782 0.71289,0.1191 0,-256.0527 -149.51172,0 z" id="tangletown" style="fill:#d4aa00;stroke:none;stroke-width:2.5;stroke-miterlimit:4;stroke-dasharray:none;stroke-opacity:1"/>
		
    
		<rect height="114.09933" id="regina" style="fill:#ffcc00;stroke:none;stroke-width:2.5;stroke-miterlimit:4;stroke-dasharray:none;stroke-opacity:1" width="136.59946" x="802.48694" y="2134.3931"/>
		
    
		<rect height="224.56561" id="central" style="fill:#803300;stroke:none;stroke-width:2.5;stroke-miterlimit:4;stroke-dasharray:none;stroke-opacity:1" width="138.65002" x="802.72076" y="1795.693"/>
		
    
		<rect height="224.37834" id="powderhorn" style="fill:#ff6600;stroke:none;stroke-width:2.5;stroke-miterlimit:4;stroke-dasharray:none;stroke-opacity:1" width="169.37668" x="939.86261" y="1795.7866"/>
		
    
		<rect height="115.18552" id="bancroft" style="fill:#0000ff;stroke:none;stroke-width:2.5;stroke-miterlimit:4;stroke-dasharray:none;stroke-opacity:1" width="170.96652" x="938.86584" y="2020.0529"/>
		
    
		<path d="m 1109.6298,1794.9709 c -0.164,0 -0.295,0.1318 -0.295,0.2943 l 0,168.3948 182.4339,0 -73.0138,-149.8617 -7.7719,-18.8274 -101.3532,0 z" id="foo" style="fill:#ccff00;stroke:none;stroke-width:2.5;stroke-miterlimit:4;stroke-dasharray:none;stroke-opacity:1"/>
		
    
		<path d="m 1109.3398,1962.8965 0,205.6152 c 0,0.164 0.131,0.2949 0.295,0.2949 l 0.6582,0 0,-34.0117 c 0,-0.1632 0.1317,-0.2929 0.2949,-0.2929 l 13.8476,0 0,27.4023 c 0,0.1632 0.1318,0.2949 0.295,0.2949 l 156.7617,0 c 0.1632,0 0.2949,-0.1317 0.2949,-0.2949 l 0,-27.4023 92.5391,0 -26.9565,-56.0105 -55.9713,-115.595 z" id="corcoran" sodipodi:nodetypes="csscsscssssccccc" style="fill:#ffcc00;stroke:none;stroke-width:2.5;stroke-miterlimit:4;stroke-dasharray:none;stroke-opacity:1"/>
		
    
		<path d="m 1263.8789,1905.9082 27.5176,56.9883 0,0 54.2989,112.4531 1.5976,0 -0.094,-0.3711 213.2636,0 0.074,-1.1777 4.7129,-1.7676 0,-3.5371 13.5546,0 2.3575,1.1797 6.4824,0.5879 0,3.5371 0,1.1777 39.8906,0 0,-0.3887 8.3594,0 -0.7598,-21.2753 -3.8008,-0.7598 0,-32.6719 -3.7988,0.7598 0,-114.4375 c 0,-0.164 -0.131,-0.2969 -0.2949,-0.2969 l -363.3633,0 z" id="howe" style="fill:#668000;stroke:none;stroke-width:2.5;stroke-miterlimit:4;stroke-dasharray:none;stroke-opacity:1"/>
		
    
		<path d="m 1497.6543,1673.4043 c -11.8153,11.2664 -33.7569,30.0679 -56.9258,39.082 l 0,193.4219 187.2735,0 c 0.1639,0 0.2949,-0.131 0.2949,-0.2949 l 0,-77.9668 -3.0391,0 0,-9.877 -3.7988,0 0,-15.957 -1.5195,0 0,-9.1172 c 0,0 -12.2257,-44.4666 -68.3848,-68.3828 l -53.2207,-50.9082 -0.6797,0 z" id="cooper" style="fill:#00ff00;stroke:none;stroke-width:2.5;stroke-miterlimit:4;stroke-dasharray:none;stroke-opacity:1"/>
		
    
		<path d="m 1081.9961,1598.1973 0,29.7597 -28.8691,0 0,167.8301 56.1132,0 0,4.4668 c 0.031,7e-4 0.063,0 0.094,0 l 0,-4.9902 c 0,-0.1625 0.1309,-0.2951 0.2949,-0.2949 l 45.2988,0 0,0 c 0.1013,0 0.2019,0 0.3028,0 l 0.2031,0 29.7226,0 c 10.3511,-0.026 18.3689,-0.3738 24.504,-0.9942 -5.455,-10.9909 -8.5865,-25.9659 -20.2344,-38.7305 l -0.418,-0.8027 c -0.01,-0.01 -0.017,-0.021 -0.025,-0.031 l -0.086,0.016 c -0.434,-0.6753 -0.8569,-1.3043 -1.2949,-2 -0.3837,-0.6394 -0.8187,-1.4343 -1.2969,-2.3496 -0.081,-0.1544 -0.1787,-0.3599 -0.2617,-0.5215 -0.4089,-0.7949 -0.8332,-1.6325 -1.2969,-2.5899 -0.096,-0.1972 -0.2032,-0.4311 -0.3008,-0.6347 -1.0564,-2.202 -2.2298,-4.7549 -3.4883,-7.5742 -0.1528,-0.3426 -0.3253,-0.7499 -0.4804,-1.0997 -1.2478,-2.8124 -2.5416,-5.778 -3.8907,-8.9335 -0.1756,-0.4109 -0.3565,-0.8432 -0.5332,-1.2579 -1.3354,-3.1353 -2.6756,-6.3127 -4.0215,-9.5449 -0.3559,-0.8544 -0.6914,-1.6729 -1.0449,-2.5254 -1.112,-2.6832 -2.2055,-5.3271 -3.2617,-7.9082 -0.7167,-1.7505 -1.3517,-3.3169 -2.0273,-4.9785 -0.6263,-1.5411 -1.2131,-2.982 -1.7911,-4.4121 -2.4422,-6.0388 -4.2362,-10.5327 -5.3671,-13.3769 -0.6987,-0.9102 -1.3979,-1.8071 -2.0957,-2.7247 0,0 -17.4727,-32.8928 -17.4727,-36.8086 0,-3.9158 -21.2695,-21.1464 -21.2695,-21.1464 l -17.4727,-25.0606 -18.2324,-0.7812 z" id="east phillips" style="fill:#000080;fill-rule:evenodd;stroke:none;stroke-width:2.5;stroke-linecap:butt;stroke-linejoin:miter;stroke-miterlimit:4;stroke-dasharray:none;stroke-opacity:1"/>
		
    
		<path d="m 1157.9629,1683.2812 c 3.9032,9.8299 23.4633,58.8523 29.6387,69.1446 0.438,0.6957 0.8609,1.3247 1.2949,2 l 0.094,-0.018 0.4356,0.8359 c 11.999,13.1493 14.9522,28.6585 20.7265,39.7266 2.2735,0.4115 3.1041,5.5098 3.9747,7.6191 l 0.6523,1.2481 -0.1172,0.047 4.0938,9.914 44.8769,92.1094 176.8008,0 0,-193.3066 c -6.7488,2.6002 -13.597,4.3724 -20.3281,4.8711 -41.0304,3.0393 -85.0986,-3.039 -99.5352,-4.5586 -14.4366,-1.5197 -66.1046,-0.7597 -77.5019,-2.2793 -11.3973,-1.5197 -61.5469,-27.3536 -61.5469,-27.3536 l -23.5586,0 z m -3.0352,111.6836 0,0.01 0.7578,0 c -0.2527,0 -0.5043,4e-4 -0.7578,-0.01 z" id="longfellow" style="fill:#c8b7b7;stroke:none;stroke-width:2.5;stroke-miterlimit:4;stroke-dasharray:none;stroke-opacity:1"/>
		
    
		<path d="m 1335.1289,1264.3516 0,238.3554 c 4.0728,4.7273 8.2603,10.0825 10.7188,14.6563 0.071,-0.055 0.5625,-0.4297 0.5625,-0.4297 l 6.9843,-0.5371 c 0,0 37.0728,43.5199 60.7129,74.1445 23.4985,30.4413 81.386,83.6012 82.0801,84.2383 0.4876,-0.4581 1.0091,-0.9386 1.4668,-1.375 l 0.6797,0 53.2207,50.9082 c 0.7569,0.3223 1.5031,0.6489 2.2441,0.9785 l 0,-360.5117 c -23.816,-12.6819 -85.2308,-45.1264 -91.3359,-45.5625 -7.5219,-0.5373 -82.204,-26.8649 -85.9649,-27.9395 -3.7609,-1.0745 -19.8788,-16.6541 -26.3261,-17.1914 -3.079,-0.2565 -9.3374,-4.9271 -15.043,-9.7343 z m 153.1289,417.582 c -0.6787,0.5881 -1.3861,1.189 -2.0937,1.7891 0.7114,-0.6031 1.4115,-1.1982 2.0937,-1.7891 z m -3.7676,3.1934 c -0.6009,0.5006 -1.2033,1.0021 -1.8222,1.5078 0.6212,-0.5073 1.2192,-1.0056 1.8222,-1.5078 z m -4.7109,3.8261 c -0.5316,0.4207 -1.0668,0.8401 -1.6094,1.2617 0.5435,-0.4221 1.0769,-0.8405 1.6094,-1.2617 z m -4.9004,3.7715 c -0.4853,0.3628 -0.9802,0.7243 -1.4727,1.0859 0.4937,-0.3623 0.9863,-0.7224 1.4727,-1.0859 z m -4.4531,3.2324 c -0.6458,0.4565 -1.2872,0.9134 -1.9434,1.3653 0.6567,-0.4522 1.2971,-0.9085 1.9434,-1.3653 z m -10.2832,6.7715 c -1.206,0.7329 -2.4186,1.458 -3.6465,2.1582 1.2281,-0.7004 2.4402,-1.4251 3.6465,-2.1582 z m -3.6719,2.1719 c -1.1781,0.6715 -2.3689,1.3189 -3.5645,1.9551 1.1956,-0.6361 2.3864,-1.2835 3.5645,-1.9551 z m -13.1641,6.543 c -0.3142,0.1323 -0.6285,0.2655 -0.9433,0.3945 0.315,-0.129 0.6289,-0.2621 0.9433,-0.3945 z m -6.0586,2.3242 c -0.2978,0.1023 -0.5963,0.1969 -0.8945,0.2949 0.2984,-0.099 0.5964,-0.1925 0.8945,-0.2949 z m -102.1191,0.7793 c 1.2984,0.1427 2.4668,0.2602 3.8691,0.4082 -1.286,-0.1362 -2.6697,-0.2764 -3.8691,-0.4082 z m 96.7969,0.8476 c -0.3854,0.1036 -0.7709,0.2019 -1.1563,0.2989 0.3855,-0.097 0.7708,-0.1953 1.1563,-0.2989 z m -86.3828,0.2246 c 1.7695,0.1719 3.5108,0.3382 5.3906,0.5059 -1.8573,-0.1665 -3.6411,-0.3353 -5.3906,-0.5059 z m 7.6777,0.711 c 2.5386,0.2174 5.1626,0.4244 7.8613,0.6211 -2.6911,-0.1971 -5.3304,-0.4033 -7.8613,-0.6211 z m 70.5391,0.7383 c -0.3466,0.048 -0.693,0.1026 -1.0391,0.1445 0.3459,-0.042 0.6927,-0.096 1.0391,-0.1445 z m -3.6543,0.4043 c -1.7563,0.13 -3.5185,0.2379 -5.2813,0.3359 1.7642,-0.098 3.5257,-0.2059 5.2813,-0.3359 z m -6.5586,0.4043 c -0.8267,0.042 -1.6534,0.073 -2.4805,0.1093 0.8273,-0.036 1.654,-0.067 2.4805,-0.1093 z m -31.9649,0.1855 c 0.1056,0 0.2108,0.01 0.3164,0.01 -0.1055,0 -0.211,-0.01 -0.3164,-0.01 z m 23.9356,0.1172 c -0.5099,0.014 -1.0199,0.028 -1.5293,0.039 0.51,-0.011 1.019,-0.026 1.5293,-0.039 z" id="prospect park" style="fill:#c83737;stroke:none;stroke-width:2.5;stroke-miterlimit:4;stroke-dasharray:none;stroke-opacity:1"/>
		
    
		<path d="m 1298.2891,1234.1211 c -1.5344,0.021 -3.6831,1.0945 -7.7539,3.4297 -8.1417,4.6703 -16.1186,24.8929 -24.1778,37.3398 -8.0591,12.4468 -12.4921,34.1949 -24.1777,37.3418 -11.6857,-4.9122 -16.3869,-7.5223 -29.9531,-16.8574 -13.5662,-9.3352 -24.3114,-20.4844 -28.0723,-16.9922 -7.5219,6.9846 -23.1035,38.1465 -23.1035,38.1465 l 35.4609,41.9082 -0.5371,29.5508 -32.2363,0 0,-8.5977 -12.8945,-12.3574 -19.8809,0 0,87.0391 89.1875,0 c 0,0 10.3425,11.9546 33.3782,12.7606 12.547,0.439 30.0202,10.3429 30.0202,10.3429 37.0876,-3e-4 51.5801,29.0117 51.5801,29.0117 0,0 0.1829,-2.4867 0.2363,-3.1992 -0.079,-0.092 -0.1575,-0.1898 -0.2363,-0.2813 l 0,-237.7402 c -12.4517,-7.9016 -30.0267,-24.7464 -32.7754,-27.9531 -1.6118,-1.8805 -2.5301,-2.9132 -4.0644,-2.8926 z m 39.5761,32.4785 c 1.5395,1.2388 3.0655,2.4062 4.5293,3.4492 -0.4018,-1.0103 -0.8487,-1.6657 -1.3554,-1.873 -0.9757,-0.3991 -2.0553,-0.956 -3.1739,-1.5762 z m 150.3926,415.334 c -0.6822,0.5909 -1.3823,1.186 -2.0937,1.7891 0.7076,-0.6001 1.415,-1.201 2.0937,-1.7891 z m -3.7676,3.1934 c -0.603,0.5022 -1.201,1.0005 -1.8222,1.5078 0.6189,-0.5057 1.2213,-1.0072 1.8222,-1.5078 z m -4.7109,3.8261 c -0.5325,0.4212 -1.0659,0.8396 -1.6094,1.2617 0.5426,-0.4216 1.0778,-0.841 1.6094,-1.2617 z m -4.9004,3.7715 c -0.4864,0.3635 -0.979,0.7236 -1.4727,1.0859 0.4925,-0.3616 0.9874,-0.7231 1.4727,-1.0859 z m -4.4531,3.2324 c -0.6463,0.4568 -1.2867,0.9131 -1.9434,1.3653 0.6562,-0.4519 1.2976,-0.9088 1.9434,-1.3653 z m -10.2832,6.7715 c -1.2063,0.7331 -2.4184,1.4578 -3.6465,2.1582 1.2279,-0.7002 2.4405,-1.4253 3.6465,-2.1582 z m -3.6719,2.1719 c -1.1781,0.6716 -2.3688,1.319 -3.5645,1.9551 1.1956,-0.6362 2.3864,-1.2836 3.5645,-1.9551 z m -13.1641,6.543 c -0.3144,0.1324 -0.6283,0.2655 -0.9433,0.3945 0.3148,-0.129 0.6291,-0.2622 0.9433,-0.3945 z m -6.0586,2.3242 c -0.2981,0.1024 -0.5961,0.1961 -0.8945,0.2949 0.2982,-0.098 0.5967,-0.1926 0.8945,-0.2949 z m -102.1191,0.7793 c 1.1994,0.1318 2.5831,0.272 3.8691,0.4082 -1.4023,-0.148 -2.5707,-0.2655 -3.8691,-0.4082 z m 96.7969,0.8476 c -0.3855,0.1036 -0.7708,0.2019 -1.1563,0.2989 0.3854,-0.097 0.7709,-0.1953 1.1563,-0.2989 z m -86.3828,0.2246 c 1.7495,0.1706 3.5333,0.3394 5.3906,0.5059 -1.8798,-0.1677 -3.6211,-0.334 -5.3906,-0.5059 z m 7.6777,0.711 c 2.5309,0.2178 5.1702,0.424 7.8613,0.6211 -2.6987,-0.1967 -5.3227,-0.4037 -7.8613,-0.6211 z m 70.5391,0.7383 c -0.3464,0.048 -0.6932,0.1026 -1.0391,0.1445 0.3461,-0.042 0.6925,-0.096 1.0391,-0.1445 z m -3.6543,0.4043 c -1.7556,0.13 -3.5171,0.2382 -5.2813,0.3359 1.7628,-0.098 3.525,-0.2059 5.2813,-0.3359 z m -6.5586,0.4043 c -0.8265,0.042 -1.6532,0.074 -2.4805,0.1093 0.8271,-0.036 1.6538,-0.067 2.4805,-0.1093 z m -31.9649,0.1855 c 0.1054,0 0.2109,0.01 0.3164,0.01 -0.1056,0 -0.2108,-0.01 -0.3164,-0.01 z m 23.9356,0.1172 c -0.5103,0.013 -1.0193,0.028 -1.5293,0.039 0.5094,-0.011 1.0194,-0.026 1.5293,-0.039 z" id="university" sodipodi:nodetypes="scscsscccccccccsscccccscccccccccccccccccccccccccccccccccccccccccccccccccccccccccc" style="fill:#ff6600;fill-rule:evenodd;stroke:none;stroke-width:2.5;stroke-linecap:butt;stroke-linejoin:miter;stroke-miterlimit:4;stroke-dasharray:none;stroke-opacity:1"/>
		
    
		<path d="m 928.41016,1362.1992 -26.86328,39.2207 -4.29688,1.0742 0,5.3731 -25.03516,37.0683 -6.56054,0 0,12.3575 -4.79492,0 0,65.0175 139.55862,0 0,-2.1503 21.8379,0 0,-3.7598 17.3711,0 0,-2.1504 -1.3887,0 0,-46.748 3.1933,0 0,-13.9708 c 0,0 0.8067,-1.1196 1.1602,-1.6113 l -11,0 -0.5606,-6.4433 -0.25,-0.1563 0,-0.3848 -0.6113,0 -55.55271,-34.9199 -5.91016,0 -4.29883,-22.5644 -35.99804,-25.252 z" id="elliot park" style="fill:#008080;stroke:none;stroke-width:2.5;stroke-miterlimit:4;stroke-dasharray:none;stroke-opacity:1"/>
		
    
		<path d="m 1038.671,1513.8722 c -0.2267,3.4226 -5.5826,1.7161 -8.3926,2.5555 -2.9331,0.7157 -9.3853,-2.0876 -8.0264,2.9202 -1.5491,2.0566 -6.9025,0.3088 -9.9286,0.8884 l -11.9074,0 c 0.6334,4.2802 -6.00027,1.2932 -8.76053,2.1797 l -130.36445,0 0,73.4453 c 2.59011,2.3311 7.4694,0.5072 11.00281,1.086 l 66.32531,0 c 0.20985,10.0961 -0.41943,20.3589 0.31405,30.351 12.00534,0.7282 24.27787,0.106 36.38633,0.313 l 106.67658,0 0,-29.414 18.2324,0.7812 c 4.36,6.2539 8.7201,12.5078 13.0801,18.7617 1.1933,-8.1072 15.3599,-15.2565 12.8769,-21.9355 -9.1093,-11.8255 -15.3923,-25.6659 -21.3216,-39.3025 -4.3623,-14.3345 -19.5229,-43.1247 -19.5229,-43.1247 0,0 -30.9472,0.4947 -46.67,0.4947 z" id="ventura villiage" sodipodi:nodetypes="cccccccccccccccccccc" style="fill:#ffaaaa;stroke:none;stroke-width:2.5;stroke-miterlimit:4;stroke-dasharray:none;stroke-opacity:1"/>
		
    
		<path d="m 1134.1875,1312.2285 0,0 c 0,0 8.5961,21.4906 -11.8203,39.2207 -20.0345,17.3984 -78.0241,97.4602 -80.1992,100.4668 l -4.1563,0 0,60.7285 c 0,0.5902 0.4743,1.0664 1.0645,1.0664 l 44.0703,0 0,1.1094 0.498,0 c 0.5242,0 0.9395,0.3863 1.0352,0.8887 l 1.1523,-0.3906 0.461,0.3672 c -0.06,-0.1166 -0.461,-0.9043 -0.461,-0.9043 0,0 0.067,-0.7137 0.3008,-1.6133 l 9.6914,0 c 0.7369,0.7636 1.5167,1.6369 2.3653,2.6875 11.2828,13.9692 51.5781,27.9375 51.5781,27.9375 l 153.123,0 c 9.1337,0 43.5196,-26.8633 43.5196,-26.8633 0,0 -0.4912,0.3742 -0.5625,0.4297 -2.4108,-4.485 -6.4851,-9.7142 -10.4825,-14.3731 -0.053,0.7143 -0.2363,3.1973 -0.2363,3.1973 0,0 -14.4925,-29.012 -51.5801,-29.0117 0,0 -17.4725,-9.9048 -30.0195,-10.3438 -23.0357,-0.806 -33.3789,-12.7597 -33.3789,-12.7597 l -89.1875,0 0,-87.0391 19.8809,0 12.8945,12.3574 0,8.5977 32.2363,0 0.5371,-29.5508 -35.4609,-41.9082 c 0,0 0.9897,-1.9514 2.2051,-4.3008 l -29.0684,0 z m 107.9824,0 c 0,0 0.01,0 0.01,0 0,0 0.01,0 0.012,0 l -0.021,0 z m 111.2246,204.168 c 0,0 2.3406,2.7634 4.545,5.3691 -2.7626,-3.2703 -4.545,-5.3691 -4.545,-5.3691 z m -249.0507,38.5527 c 0.035,0.1201 0.079,0.2537 0.121,0.3848 -0.043,-0.1318 -0.085,-0.2642 -0.121,-0.3848 z m 3.8886,9.3789 c 0.069,0.1489 0.121,0.2733 0.1914,0.4239 l 0,0 c -0.07,-0.149 -0.125,-0.2766 -0.1934,-0.4239 z" id="cedar riverside" style="fill:#ff00ff;stroke:none;stroke-width:2.5;stroke-miterlimit:4;stroke-dasharray:none;stroke-opacity:1"/>
		
    
		<path d="m 803.58984,2248.5703 0,158.3867 11.6543,0 0,-2.1191 6.35547,0 0,-4.2363 17.48242,0 0,-2.6504 8.47461,0 0,-2.6485 2.64844,0 c 0,0 8.47663,-25.9567 13.24414,-31.2539 4.76751,-5.2972 50.32282,-3.7072 59.32812,15.8926 2.29439,4.9937 8.48508,4.262 16.42188,0.4238 l 0,-131.7949 -135.60938,0 z" id="field" style="fill:#ccff00;stroke:none;stroke-width:2.5;stroke-miterlimit:4;stroke-dasharray:none;stroke-opacity:1"/>
		
    
		<path d="m 877.50781,2361.4395 c -7.09605,-0.029 -12.56874,0.954 -14.05859,2.6093 -4.76751,5.2972 -13.24414,31.2539 -13.24414,31.2539 l -2.64844,0 0,2.6485 -8.47461,0 0,2.6504 -17.48242,0 0,4.2363 -6.35547,0 0,2.1191 -11.6543,0 0,94.6953 6.73438,0 0,2.3575 7.66211,0 0,1.7675 10.01758,0 2.12109,3.6719 17.32812,0 0,-1.9043 5.89258,0 0,-3.5351 3.53516,0 0,-5.3047 26.81445,0 c 0.16322,0 0.29492,0.1317 0.29492,0.2949 l 0,2.6523 55.20899,0 0,-121.2871 c -7.9368,3.8382 -14.12749,4.5699 -16.42188,-0.4238 -6.19114,-13.4749 -29.65821,-18.4377 -45.26953,-18.5019 z" id="page" style="fill:#ff7f2a;stroke:none;stroke-width:2.5;stroke-miterlimit:4;stroke-dasharray:none;stroke-opacity:1"/>
		
    
		<path d="m 1108.0664,2302.0332 c -9.5385,0.1027 -33.6558,4.5408 -39.6152,8.5137 -3.1783,2.1189 -10.727,9.2713 -16.9512,17.3496 -6.2242,8.0782 -11.124,17.0824 -19.5996,16.5527 -16.9511,-1.0595 -54.03218,4.7674 -57.74024,12.1836 -3.53054,7.0611 -27.69643,18.9157 -35.49024,19.5781 l 0,125.372 171.46148,0 0.1674,-199.5087 c -0.1626,0 -0.3867,0.01 -0.5293,0 -0.4966,-0.033 -1.0672,-0.046 -1.7031,-0.039 z" id="hale" sodipodi:nodetypes="cssssccccccc" style="fill:#89a02c;stroke:none;stroke-width:2.5;stroke-miterlimit:4;stroke-dasharray:none;stroke-opacity:1"/>
		
    
		<path d="m 938.66992,2134.6797 0,241.5312 c 7.79381,-0.6624 31.9597,-12.517 35.49024,-19.5781 3.70806,-7.4162 40.78914,-13.2431 57.74024,-12.1836 8.4756,0.5297 13.3754,-8.4745 19.5996,-16.5527 6.2242,-8.0783 13.7729,-15.2307 16.9512,-17.3496 6.3567,-4.2377 33.3725,-9.0043 41.3183,-8.4746 0.1426,0.01 0.3667,0 0.5293,0 l 0,-167.3945 -171.62888,0 z" id="northrop" style="fill:#ff00ff;stroke:none;stroke-width:2.5;stroke-miterlimit:4;stroke-dasharray:none;stroke-opacity:1"/>
		
    
		<rect height="114.09933" id="bryant" style="fill:#88aa00;stroke:none;stroke-width:2.5;stroke-miterlimit:4;stroke-dasharray:none;stroke-opacity:1" width="136.59946" x="802.48694" y="2020.3931"/>
		
    
		<rect height="285.81305" id="kingfield" style="fill:#c87137;stroke:none;stroke-width:2.5;stroke-miterlimit:4;stroke-dasharray:none;stroke-opacity:1" width="149.51048" x="654.86981" y="1962.2966"/>
		
    
		<rect height="232.40732" id="lynnhurst" style="fill:#88aa00;stroke:none;stroke-width:2.5;stroke-miterlimit:4;stroke-dasharray:none;stroke-opacity:1" width="232.49023" x="422.24194" y="2248.3582"/>
		
    
		<rect height="167.90503" id="east calhoun" style="fill:#668000;stroke:none;stroke-width:2.5;stroke-miterlimit:4;stroke-dasharray:none;stroke-opacity:1" width="119.85026" x="420.84213" y="1795.9846"/>
		
    
		<path d="m 861.33008,1597.0117 0,65.6856 c -0.5142,8.2271 -55.26041,104.8974 -58.45052,110.5814 l 0.30989,22.4036 135.48047,0 0,-198.6706 z" id="rect4330" sodipodi:nodetypes="ccccccc" style="fill:#ffcc00;stroke:none;stroke-width:2.5;stroke-miterlimit:4;stroke-dasharray:none;stroke-opacity:1"/>
		
    
		<path d="m 653.67773,1499.541 c 0,0 -26.48614,47.6753 -29.13476,55.6211 -2.64861,7.9459 -33.9026,66.2164 -36.02149,71.5137 -2.1189,5.2972 -42.37787,65.1546 -46.08593,101.1758 -0.3929,3.8167 -1.13318,7.37 -2.11719,10.6972 l 0,57.1074 114.41992,0 0,-296.1152 -1.06055,0 z" id="lowry hill east" style="fill:#ff00ff;stroke:none;stroke-width:2.5;stroke-miterlimit:4;stroke-dasharray:none;stroke-opacity:1"/>
		
    
		<path d="m 654.20703,1571.0547 0,224.0723 149.38281,0 -0.52929,-21.1895 c 0,0 57.7398,-102.7646 58.26953,-111.2402 l 0,-91.6426 -207.12305,0 z" id="whittier" style="fill:#88aa00;stroke:none;stroke-width:2.5;stroke-miterlimit:4;stroke-dasharray:none;stroke-opacity:1"/>
		
    
		<path d="m 732.60742,1364.9922 -7.41601,1.5898 -16.42188,2.6485 -4.76758,5.8261 -25.42773,0 -11.65234,11.6543 -13.24415,0 0,154.6797 47.67579,0 c 0,0 60.41198,-34.4935 107.0039,-37.082 28.60504,-1.5892 51.38281,20.1309 51.38281,20.1309 l 1.58985,0.4902 0,-59.502 -9.53516,-6.6738 -13.77344,0 -3.70703,-10.0664 c 0,0 -46.7293,-19.6596 -66.74609,-35.4902 -7.76206,-6.1387 -9.53516,-2.6485 -9.53516,-2.6485 0,0 -10.59332,-15.8921 -11.12304,-21.1894 -0.52973,-5.2972 -10.59571,-11.125 -10.59571,-11.125 z" id="loring park" sodipodi:nodetypes="cccccccccsccccccscscc" style="fill:#ffd42a;stroke:none;stroke-width:2.5;stroke-miterlimit:4;stroke-dasharray:none;stroke-opacity:1"/>
		
    
		<path d="m 811.02148,1504.2266 c -0.882,0.01 -1.77015,0.033 -2.66406,0.084 -46.59192,2.6379 -107.0039,37.1342 -107.0039,37.1342 l -47.67579,-0.1966 c 0,0 -0.25195,28.8556 -0.25195,30.2398 l 208.15625,0 0,-48.8221 -0.25195,0 0,2.6592 -1.58985,-0.4996 c 0,0 -21.37647,-20.7726 -48.71875,-20.5985 z" id="stevens square" sodipodi:nodetypes="cccccccccccc" style="fill:#00ffff;stroke:none;stroke-width:2.5;stroke-miterlimit:4;stroke-dasharray:none;stroke-opacity:1"/>
		
    
		<path d="m 1001.3984,1274.8203 c -0.4091,0.027 -0.7401,0.1384 -0.9922,0.3399 -5.37259,4.2982 -23.10347,33.3105 -23.10347,33.3105 l -3.22265,7.5215 c -2.32314,5.4206 -23.75773,36.3025 -35.63086,53.25 l 25.95898,18.209 4.29883,22.5644 5.91016,0 55.55271,34.9199 0.6113,0 0,0.3848 0.25,0.1563 0.5606,6.4433 10.5762,0 c 2.1751,-3.0066 60.1647,-83.0684 80.1992,-100.4668 20.4164,-17.7301 11.8203,-39.2207 11.8203,-39.2207 l -38.6855,0 c -0.5949,0 -1.0723,-0.4794 -1.0723,-1.0742 -44.5519,-3.0725 -84.7122,-36.8955 -93.0313,-36.3379 z" id="downtown east" style="fill:#ffcc00;fill-rule:evenodd;stroke:none;stroke-width:2.5;stroke-linecap:butt;stroke-linejoin:miter;stroke-miterlimit:4;stroke-dasharray:none;stroke-opacity:1"/>
		
    
		<path d="m 921.1875,1213.4922 c -28.07532,19.07 -52.44141,51.9121 -52.44141,51.9121 l -4.23828,0 -20.6582,-20.1289 0,-5.8281 -12.18359,-11.1231 -15.89258,11.6543 -5.29688,1.0586 0,4.7676 -31.7832,30.7246 -3.70898,0 -7.94532,9.0039 -5.82617,0 -1.58984,5.8281 -6.35743,0.5293 -20.1289,22.7774 -6.88672,1.5898 0,50.0977 6.35742,-1.3633 3.70703,13.2422 c 0,0 10.06598,5.8278 10.59571,11.125 0.52972,5.2973 11.12304,21.1894 11.12304,21.1894 0,0 1.7731,-3.4902 9.53516,2.6485 20.01679,15.8306 66.74609,35.4902 66.74609,35.4902 l 3.70703,10.0664 13.77344,0 9.06446,6.3438 0,-7.8047 4.79492,0 0,-12.3575 6.56054,0 25.03516,-37.0683 0,-5.3731 4.29688,-1.0742 26.86328,-39.2207 10.03906,7.043 c 4.6692,-6.6647 10.80278,-15.4682 16.68555,-24.0469 l 10.66796,-15.793 c 4.25036,-6.4236 7.46622,-11.5175 8.27735,-13.4101 l 3.22265,-7.5215 c 0,0 17.73093,-29.0123 23.10347,-33.3105 0.225,-0.1799 0.523,-0.2761 0.8731,-0.3164 -4.93752,-3.2146 -51.50611,-33.7689 -80.0918,-61.3516 z" id="downtown west" style="fill:#ccff00;fill-rule:evenodd;stroke:none;stroke-width:2.5;stroke-linecap:butt;stroke-linejoin:miter;stroke-miterlimit:4;stroke-dasharray:none;stroke-opacity:1"/>
		
    
		<path d="m 643.08398,1346.9824 0,4.2364 -4.23828,0 -9.53515,10.0644 -5.29688,0.5313 c 0,0 -45.55696,36.02 -52.44336,40.2578 -6.8864,4.2378 -27.01594,28.0762 -33.90234,32.8437 -6.8864,4.7675 -28.07514,19.5996 -31.7832,19.5996 -3.70807,0 -2.11914,11.6543 -2.11915,11.6543 l -18.53906,-0.5312 -17.48047,0 0,47.1465 14.83203,0 0,47.1445 3.70704,0 0,40.7891 115.47851,0 c 9.69477,-18.6539 21.19551,-40.8053 22.7793,-45.5567 2.64862,-7.9458 29.13476,-55.6211 29.13476,-55.6211 l 0,-152.5586 -10.59375,0 z" id="lowry hill" style="fill:#aad400;stroke:none;stroke-width:2.5;stroke-miterlimit:4;stroke-dasharray:none;stroke-opacity:1"/>
		
    
		<path d="m 486.28516,1600.1895 0,10.1074 -0.5293,-0.043 -4.23828,1.5899 0,12.1835 -2.11914,0 0,12.7129 -4.23633,3.1778 -0.53125,7.9472 -2.11719,0.5293 c 0,0 -5.82709,16.4206 -9.53515,18.0098 -3.70806,1.5891 -4.76758,8.4766 -4.76758,8.4766 l 1.05859,1.5078 0,118.209 79.98828,0 0,-50.3243 1.06055,0 0,-5.7246 c 0.98401,-3.3272 1.72429,-6.8805 2.11719,-10.6972 3.70806,-36.0212 43.96703,-95.8786 46.08593,-101.1758 0.82792,-2.0698 6.43522,-12.8588 12.71485,-24.9414 l 0,-1.5449 -114.95117,0 z" id="east isles" style="fill:#ffcc00;stroke:none;stroke-width:2.5;stroke-miterlimit:4;stroke-dasharray:none;stroke-opacity:1"/>
		
    
		<rect height="168.18878" id="rect4411" style="fill:#e5ff80;stroke:none;stroke-width:2.5;stroke-miterlimit:4;stroke-dasharray:none;stroke-opacity:1" width="114.34862" x="938.74536" y="1627.5986"/>
		
    
		<path d="m 194.61493,1624.388 0,172.8812 263.76743,0 0,-100.765 -122.49873,0 0,-16.7942 10.48274,-18.1567 0.38408,-36.1774 z" id="cedar-isles-dean" style="fill:#ff4900;fill-opacity:1;fill-rule:evenodd;stroke:none;stroke-width:2.5;stroke-linecap:butt;stroke-linejoin:miter;stroke-miterlimit:4;stroke-dasharray:none;stroke-opacity:1"/>
		
    
		<path d="m 312.17383,1289.4922 0,53.3457 -47.42578,0 0,-0.9805 -69.13867,0 0,0.9805 -0.006,0 0,121.5117 0.006,0 0,160.0313 69.13867,0 0,-106.4024 c 21.96601,0.1033 62.90717,-1.0312 83.97851,-10.1621 23.46981,-10.1702 77.95447,-31.4619 103.98047,-42.2156 l 51.17356,0.4171 c -0.89489,-8.1977 0.52761,-10.5589 0.52761,-10.5589 0,0 0.83469,-0.9434 1.47657,-0.9434 3.70806,0 24.8968,-14.8321 31.7832,-19.5996 6.8864,-4.7675 27.01594,-28.6059 33.90234,-32.8437 6.8864,-4.2378 52.44336,-40.2578 52.44336,-40.2578 l 5.29688,-0.5313 9.53515,-10.0644 4.23828,0 0,-3.4805 c -13.44654,-0.1226 -93.97409,-0.7896 -95.79101,1.0273 -1.41528,1.4153 -28.8109,8.8051 -44.45508,12.9453 l 0,-18.873 -42.02344,0 -6.38281,-5.9277 c 0,0 -7.05745,2.6962 -22.72266,2.1015 l 0,-5.0644 -16.79296,0 0,3.414 c -0.98441,-0.1477 -1.94048,-0.2804 -2.96485,-0.4511 -29.63679,-4.9395 -51.37109,-45.4416 -51.37109,-45.4414 l 0,-1.9766 z" id="bryn mawr" sodipodi:nodetypes="ccccccccccccscccssscccccscccccccccccc" style="fill:#e5ff80;stroke:none;stroke-width:2.51292372;stroke-miterlimit:4;stroke-dasharray:none;stroke-opacity:1"/>
		
    
		<path d="m 452.70703,1465.6008 c 0,0 -80.51066,32.0454 -103.98047,42.2156 -21.07134,9.1309 -62.0125,10.2654 -83.97851,10.1621 l 0,106.4024 -23.70117,0 0,0.3086 105.70312,0.6855 -0.38281,36.1777 -10.48438,18.1582 0,16.793 122.5,0 0,7.9043 0.88672,0 0,-28.0195 -1.05859,-1.5078 c 0,0 1.05952,-6.8875 4.76758,-8.4766 3.70806,-1.5892 9.53515,-18.0098 9.53515,-18.0098 l 2.11719,-0.5293 0.53125,-7.9472 4.23633,-3.1778 0,-12.7129 2.11914,0 0,-12.1835 4.23828,-1.5899 0.5293,0.043 0,-9.5781 0,-0.5293 0,-40.2598 -3.70704,0 0,-47.1445 -14.83203,0 0,-46.9379 z" id="kenwood" sodipodi:nodetypes="csccccccccccccccccccccccccccccccc" style="fill:#000080;fill-opacity:1;stroke:none;stroke-width:2.5;stroke-miterlimit:4;stroke-dasharray:none;stroke-opacity:1"/>
		
    
		<path d="m 427.75781,1226.2676 -116.57226,11.8535 0.98828,53.3477 0,-1.9766 48.40625,0 0,1.9766 c 0,-2e-4 21.7343,40.5019 51.37109,45.4414 1.02437,0.1707 1.98044,0.3034 2.96485,0.4511 l 0,-3.414 16.79296,0 0,5.0644 c 15.66521,0.5947 22.72266,-2.1015 22.72266,-2.1015 l 6.38281,5.9277 42.02344,0 0,18.873 c 15.64418,-4.1402 43.0398,-11.53 44.45508,-12.9453 1.73963,-1.7396 74.23579,-1.2092 92.32226,-1.0527 l 13.38282,-1.9102 0,-38.5293 -99.77735,-16.7929 -0.98828,-24.6973 1.97461,-6.916 c 0,0 34.57775,1.9758 28.65039,-29.6367 l -155.09961,-2.9629 z" id="harrison" style="fill:#ff4900;fill-opacity:1;fill-rule:evenodd;stroke:none;stroke-width:1px;stroke-linecap:butt;stroke-linejoin:miter;stroke-opacity:1"/>
		
    
		<path d="m 311.55078,775.83984 0.67774,462.17576 115.52929,-11.748 1.89844,0.037 0,-108.3692 67.875,0 0,-57.0156 15.61328,0 0,-33.9375 10.17969,0 0,-23.0781 4.07422,-1.3574 0,-12.89651 -11.53906,0 c 0,0 -34.17778,12.86041 -59.05274,-25.79297 -8.48026,-13.17753 -1.35742,-15.61133 -1.35742,-15.61133 0,0 -16.96968,-14.93392 -17.64844,-23.75781 -0.67876,-8.8239 -40.04626,-29.18596 -48.1914,-36.65234 -8.14513,-7.46637 -63.80461,-103.85096 -78.0586,-111.9961 z" id="willard-hay" style="fill:#ffd42a;fill-rule:evenodd;stroke:none;stroke-width:1px;stroke-linecap:butt;stroke-linejoin:miter;stroke-opacity:1"/>
		
    
		<path d="m 646.18164,1155.9453 -61.08984,0.6797 -0.67774,72.627 -1.35547,1.1562 c 4.854,30.381 -28.85156,28.459 -28.85156,28.459 l -1.97461,6.916 0.98828,24.6973 96.41797,16.2285 4.6875,-0.078 c 0,0 2e-4,-83.4871 -2.71484,-86.8809 -2.71505,-3.3938 -9.50391,-31.2227 -9.50391,-31.2227 l 1.35742,-22.4003 2.03711,-4.0723 0.67969,-6.1094 z" id="sumner" style="fill:#c8ab37;fill-rule:evenodd;stroke:none;stroke-width:1px;stroke-linecap:butt;stroke-linejoin:miter;stroke-opacity:1"/>
		
    
		<path d="m 532.14844,990.32812 c -1.35836,0 -2.2755,3.70995 -2.89453,8.14454 l -1.85547,0 0,4.07424 -4.07422,1.3574 0,23.0781 -10.17969,0 0,33.9375 -15.61328,0 0,57.0156 -4.75,0 0,0.6797 -63.125,0 0,107.6895 0,2.2695 154.76367,0 0.4961,-53.1152 0.0488,-5.2246 0.12696,-13.6094 61.08984,-0.6797 -0.67969,6.1094 -0.41797,0.8359 2.45508,-4.2285 c 0,0 15.61134,-33.2601 28.50782,-42.084 12.89646,-8.8239 4.75,-9.5019 4.75,-9.5019 l 99.0996,1.3574 c 0,0 30.5436,-6.7886 35.29493,-13.5762 4.75133,-6.7876 -16.96772,-41.4032 -17.64649,-95.02537 l 0,-1.35937 -4.21484,0 c -4.14613,-1.11721 -8.44174,-1.63382 -12.83789,-1.62305 -4.58485,0.0112 -9.27631,0.5951 -14.01172,1.62305 l -223.08594,0 c -4.8607,-4.24787 -9.71447,-8.14454 -11.24609,-8.14454 z" id="near-north" style="fill:#d35f5f;fill-opacity:1;stroke:none;stroke-width:2.5;stroke-miterlimit:4;stroke-dasharray:none;stroke-opacity:1"/>
		
    
		<path d="m 815.87109,1086.7129 -0.8125,0.043 c 0.94169,3.9117 1.14574,6.6545 0.13282,8.1015 -4.75133,6.7876 -35.29493,13.5762 -35.29493,13.5762 l -99.0996,-1.3574 c 0,0 8.14643,0.678 -4.75,9.5019 -12.89648,8.8239 -28.50782,42.084 -28.50782,42.084 l -2.45508,4.2285 -1.61914,3.2364 -1.35742,22.4003 c 0,0 6.78886,27.8289 9.50391,31.2227 2.71504,3.3938 2.71484,86.8809 2.71484,86.8809 l -4.68164,0.078 3.35352,0.5644 0,38.5293 -8.26563,1.1797 8.94531,0 0,39.7285 13.24415,0 11.65234,-11.6543 25.42773,0 4.76758,-5.8261 16.42188,-2.6485 1.05859,-0.2265 0,-50.0977 6.88672,-1.5898 20.1289,-22.7774 6.35743,-0.5293 1.58984,-5.8281 5.82617,0 7.94532,-9.0039 3.70898,0 31.7832,-30.7246 0,-4.7676 5.29688,-1.0586 15.89258,-11.6543 12.18359,11.1231 0,5.8281 20.6582,20.1289 4.23828,0 c 0,0 23.39114,-31.5169 50.74219,-50.7285 -1.27785,-1.7516 -29.82996,-41.0843 -38.45703,-70.9473 -28.50798,-8.8239 -65.16016,-57.0156 -65.16016,-57.0156 z m -172.78711,260.5059 -3.46875,0.4941 c 0.80361,0.01 2.89673,0.02 3.46875,0.025 l 0,-0.5195 z m 94.31055,31.6933 c 0.27009,0.173 0.54382,0.3502 0.89258,0.5859 -0.44805,-0.3021 -0.57953,-0.3888 -0.89258,-0.5859 z m 1.30274,0.8711 c 0.48237,0.3341 1.01714,0.7242 1.56835,1.1426 -0.56387,-0.4274 -1.07687,-0.8036 -1.56835,-1.1426 z" id="north loop" style="fill:#00ffff;fill-rule:evenodd;stroke:none;stroke-width:1px;stroke-linecap:butt;stroke-linejoin:miter;stroke-opacity:1"/>
		
    
		<path d="m 1304.5488,1087.8008 -88.2519,1.1308 15.8398,28.2852 -62.2285,1.1328 c 0,0 39.6009,52.0454 59.9668,58.834 20.3659,6.7887 62.2285,55.4414 62.2285,55.4414 l 2.1094,2.9238 c 1.8094,-0.9187 3.1003,-1.4143 4.0762,-1.4277 1.5343,-0.021 2.4526,1.0121 4.0644,2.8926 2.7487,3.2067 20.3237,20.0515 32.7754,27.9531 l 0,-0.6152 c 0.9036,0.7613 1.8199,1.5106 2.7363,2.248 1.1186,0.6202 2.1982,1.1771 3.1739,1.5762 0.5067,0.2073 0.9536,0.8627 1.3554,1.873 3.1674,2.2569 6.0051,3.8895 7.7774,4.0371 6.4473,0.5373 22.5652,16.1169 26.3261,17.1914 3.7609,1.0746 78.443,27.4022 85.9649,27.9395 6.0098,0.4293 65.2935,31.7082 89.8711,44.7871 l 0,-249.0488 -218.3672,0 -29.418,-27.1543 z m 37.8457,182.248 c -0.7311,-0.521 -1.4782,-1.0719 -2.2343,-1.6484 0.7589,0.58 1.503,1.1273 2.2343,1.6484 z m -4.5215,-3.4433 c 0.7667,0.6168 1.5266,1.2147 2.2832,1.7929 -0.7539,-0.5748 -1.5164,-1.1761 -2.2832,-1.7929 z" id="como" style="fill:#00ffff;fill-rule:evenodd;stroke:none;stroke-width:1px;stroke-linecap:butt;stroke-linejoin:miter;stroke-opacity:1"/>
		
    
		<path d="m 1551.2031,890.92969 c 0,0 -91.6472,48.65103 -101.8301,58.83398 -10.183,10.18296 -35.073,18.10431 -67.8847,20.36719 -32.8118,2.26288 -92.7784,-27.1543 -109.75,-27.1543 -16.9716,0 -46.3895,22.62818 -59.9668,62.22854 -13.5773,39.6004 3.3945,82.5957 3.3945,82.5957 l 6.8281,1.0586 82.5547,-1.0586 29.418,27.1543 173.1055,0 43,-3.3946 1.1308,-220.63081 z M 1337.873,1266.6055 c 0.7668,0.6168 1.5294,1.2181 2.2832,1.7929 -0.7566,-0.5782 -1.5165,-1.1761 -2.2832,-1.7929 z" id="mid-city industrial area" style="fill:#e9c6af;fill-rule:evenodd;stroke:none;stroke-width:1px;stroke-linecap:butt;stroke-linejoin:miter;stroke-opacity:1"/>
		
    
		<path d="m 1106.5469,1004.0742 0,114.2754 63.3613,0 62.2285,-1.1328 -15.8398,-28.2852 5.6933,-0.072 -6.8242,-1.0586 c 0,0 -16.9718,-42.9953 -3.3945,-82.5957 0.131,-0.3821 0.2723,-0.752 0.4062,-1.1309 l -105.6308,0 z" id="beltrami" style="fill:#ff6600;fill-opacity:1;stroke:none;stroke-width:2.5;stroke-miterlimit:4;stroke-dasharray:none;stroke-opacity:1"/>
		
    
		<path d="m 991.59961,1005.2051 1.80469,57.7031 c 0,0 21.0421,46.287 34.7187,57.7031 l 1.4864,0 46.9629,-19.9843 c 9.9662,-10.8876 29.7999,-54.5413 29.7999,-54.5413 l 0.087,-40.8806 z" id="st. anthony east" sodipodi:nodetypes="cccccccc" style="fill:#aad400;fill-opacity:1;stroke:none;stroke-width:10;stroke-miterlimit:4;stroke-dasharray:none;stroke-opacity:1"/>
		
    
		<path d="m 1080.1016,1094.1055 c -1.3392,2.4672 -2.125,3.9391 -3.5293,6.5215 1.2638,-2.324 2.3287,-4.2915 3.5371,-6.5176 l -0.01,0 z m -3.5293,6.5215 -46.9629,19.9843 -1.4864,0 -1.9082,0 0,3.3946 -58.83394,28.2871 -19.23438,3.3925 c 0,0 -10.59371,-20.7675 -35.07421,-27.1543 -26.0231,-6.7881 -29.41797,15.8399 -29.41797,15.8399 l -1.63868,2.5332 c 9.61665,29.401 36.23961,66.0813 37.47266,67.7715 -0.24841,0.1745 -0.49444,0.3567 -0.74219,0.5332 0.81161,-0.5786 1.62275,-1.1607 2.44141,-1.7168 11.99003,11.5693 27.12842,23.6394 41.04688,34.0176 11.90823,-1.2552 28.72762,-4.0885 35.69531,-10.3594 7.33871,-6.6048 49.63691,-83.1888 78.64261,-136.5234 z m -54.5918,13.291 c 0.1016,0.1314 0.2034,0.2633 0.3047,0.3925 -0.1012,-0.129 -0.2033,-0.2614 -0.3047,-0.3925 z m 2.3359,2.8652 c 0.3396,0.3911 0.6756,0.7661 1.0098,1.127 -0.3337,-0.3599 -0.6706,-0.7369 -1.0098,-1.127 z m 1.4238,1.5625 c 0.2885,0.3023 0.5739,0.5938 0.8575,0.8711 -0.2835,-0.2769 -0.5692,-0.5693 -0.8575,-0.8711 z m -63.46676,129.1934 c 2.17833,1.624 4.29946,3.1836 6.3789,4.6992 l 0.002,0 c -2.08396,-1.5186 -4.2072,-3.0787 -6.38086,-4.6992 z" id="nicollet island" style="fill:#00ff00;fill-rule:evenodd;stroke:none;stroke-width:10;stroke-linecap:butt;stroke-linejoin:miter;stroke-miterlimit:4;stroke-dasharray:none;stroke-opacity:1"/>
		
    
		<path d="m 1106.5469,1046.3164 -2.2617,3.0156 c 0,0 -95.0412,177.6355 -106.35551,187.8184 -6.96769,6.2709 -23.78708,9.1042 -35.69531,10.3594 19.26482,14.3646 36.1784,25.4677 39.04492,27.334 0.042,-0.01 0.075,-0.021 0.1191,-0.024 8.3191,-0.5576 48.4794,33.2654 93.0313,36.3379 0,0.5948 0.4774,1.0742 1.0723,1.0742 l 38.6855,0 0,0 29.0684,0 c 4.4121,-8.5292 15.001,-28.3695 20.8984,-33.8457 3.7609,-3.4922 14.5061,7.657 28.0723,16.9922 13.5622,9.3323 18.2652,11.9441 29.9433,16.8535 l 0.021,0 c 11.6767,-3.1585 16.1097,-24.8953 24.166,-37.3379 8.0592,-12.4469 16.0361,-32.6695 24.1778,-37.3398 1.4816,-0.85 2.6422,-1.4762 3.6777,-2.002 l -2.1094,-2.9238 c 0,0 -41.8626,-48.6527 -62.2285,-55.4414 -20.3659,-6.7886 -59.9668,-58.834 -59.9668,-58.834 l -63.3613,0 0,-72.0332 z m 190.9726,187.9004 c -0.022,0 -0.044,0.011 -0.066,0.016 0.022,0 0.045,-0.011 0.066,-0.016 z m -296.7168,40.7305 c -0.1492,0.052 -0.2821,0.1214 -0.3965,0.2129 0.1144,-0.091 0.2499,-0.1581 0.3965,-0.2129 z m -2.91012,2.8535 c -0.34929,0.4205 -0.73148,0.9131 -1.11133,1.3984 0.3794,-0.4848 0.76237,-0.978 1.11133,-1.3984 z m 136.73832,35.7832 c 0.056,0.1885 0.1105,0.3719 0.1718,0.5976 -0.062,-0.2281 -0.1154,-0.4074 -0.1718,-0.5976 z m 0.3105,1.1504 c 0.07,0.2797 0.1418,0.5691 0.2129,0.8906 -0.072,-0.3256 -0.1418,-0.6078 -0.2129,-0.8906 z m 0.3652,1.6562 c 0.06,0.304 0.12,0.617 0.1758,0.9492 -0.056,-0.3365 -0.1152,-0.6415 -0.1758,-0.9492 z" id="marcy holmes" style="fill:#ffff00;fill-rule:evenodd;stroke:none;stroke-width:10;stroke-linecap:butt;stroke-linejoin:miter;stroke-miterlimit:4;stroke-dasharray:none;stroke-opacity:1"/>
		
    
		<rect height="170.89253" id="cleveland" style="fill:#ffff00;fill-opacity:1;stroke:none;stroke-width:2;stroke-miterlimit:4;stroke-dasharray:none;stroke-opacity:1" width="113.49352" x="312.21588" y="604.47675"/>
		
    
		<rect height="172.80115" id="fowell" style="fill:#00ffff;fill-opacity:1;stroke:none;stroke-width:2;stroke-miterlimit:4;stroke-dasharray:none;stroke-opacity:1" width="171.76221" x="426.14423" y="603.00293"/>
		
    
		<path d="m 311.3457,776.23828 0,222.20508 0.53125,0 -0.32617,-222.20508 -0.20508,0 z m 0.82813,0 c 15.17828,10.42778 69.40418,104.23557 77.43555,111.59766 8.14513,7.46638 47.51264,27.82844 48.1914,36.65234 0.67876,8.82389 17.64844,23.75781 17.64844,23.75781 0,0 -7.12284,2.4338 1.35742,15.61133 24.87496,38.65338 59.05274,25.79297 59.05274,25.79297 l 11.53906,0 0,8.79297 53.54883,0 0,-0.43555 6.08789,0 0,-108.27539 -6.08789,0 0,-113.49414 -268.77344,0 z" id="jordan" style="fill:#ff2a2a;fill-opacity:1;stroke:none;stroke-width:2;stroke-miterlimit:4;stroke-dasharray:none;stroke-opacity:1"/>
		
    
		<path d="m 580.94727,776.23828 0,113.49414 6.08789,0 0,108.27539 181.84765,0 c 3.91882,-0.72559 7.80173,-1.14887 11.60938,-1.1582 3.72527,-0.009 7.37663,0.36538 10.92773,1.1582 l 6.33594,0 -0.25781,-23.91601 3.04492,-0.86914 -0.87109,-11.30664 4.3496,-0.43555 0,-9.13086 3.04297,-0.43555 0,-18.26172 3.47852,0 0,-20.4375 3.47851,-1.30468 0.002,-0.14063 0,-31.20117 -5.21875,-0.40234 1.73828,-80.44532 -3.91211,0 1.68235,-24.84488 -227.36594,0 z M 815.8457,1092.5977 c -0.002,0.037 -0.003,0.077 -0.006,0.1132 0.003,-0.036 0.004,-0.077 0.006,-0.1132 z m -0.10156,0.8281 c -0.007,0.039 -0.01,0.083 -0.0176,0.1211 0.008,-0.038 0.0101,-0.082 0.0176,-0.1211 z" id="hawthorn" sodipodi:nodetypes="cccccccccccccccccccccccccccccccc" style="fill:#00ff00;fill-opacity:1;stroke:none;stroke-width:2;stroke-miterlimit:4;stroke-dasharray:none;stroke-opacity:1"/>
		
    
		<path d="m 261.98828,305.83203 0,43.07813 40.44141,0 0,76.04687 9.23047,0 0,179.86251 114.29101,0.38173 0,-113.86729 27.25391,0 0,-67.25586 -11.42969,0 0,-62.68359 c -6.69553,-3.02915 -14.61309,-6.76953 -18.02148,-6.76953 -5.71452,0 -111.21468,-32.96875 -118.6875,-32.96875 -5.45564,0 -28.83175,-10.25875 -41.11914,-15.82422 z" id="victory" sodipodi:nodetypes="ccccccccccccsscc" style="fill:#ff00ff;fill-opacity:1;stroke:none;stroke-width:2;stroke-miterlimit:4;stroke-dasharray:none;stroke-opacity:1"/>
		
    
		<path d="m 441.77539,361.64052 0,62.4376 11.42969,0 0,67.25586 -26.81446,0 -0.95431,111.65235 288.39181,0 c -11.59761,-26.6352 -39.68435,-89.65384 -50.0664,-99.34375 -13.18733,-12.30818 -8.8834,-35.15586 -18.46094,-46.5957 -31.64961,-37.8037 -55.38734,-49.23263 -73.84961,-55.38672 -43.37555,-13.5683 -129.67578,-40.01964 -129.67578,-40.01964 z" id="webber-camden" sodipodi:nodetypes="cccccccsscc" style="fill:#aa4400;fill-opacity:1;stroke:none;stroke-width:2;stroke-miterlimit:4;stroke-dasharray:none;stroke-opacity:1"/>
		
    
		<path d="m 302.16992,292.37381 0,28.81369 c 40.16808,7.01331 82.75031,28.51826 121.58399,33.4375 3.40839,0 18.02148,6.76953 18.02148,6.76953 l 86.36914,27.12109 0.19086,-96.52354 z m 0,56.53635 0,54.47461 0.25977,0 0,-54.47461 z" id="humboldt industrial area" sodipodi:nodetypes="cccccccccccc" style="fill:#00ff00;fill-opacity:1;stroke:none;stroke-width:2;stroke-miterlimit:4;stroke-dasharray:none;stroke-opacity:1"/>
		
    
		<rect height="113.96464" id="shingle-creek" style="fill:#008080;fill-opacity:1;stroke:none;stroke-width:2;stroke-miterlimit:4;stroke-dasharray:none;stroke-opacity:1" width="225.9756" x="302.1691" y="178.71248"/>
		
    
		<path d="m 527.44727,177.36328 0,1.34961 0.69726,0 0,113.96484 -0.69726,0 0,0.65039 0.69726,0 0,95.1875 c 15.79602,4.79988 33.42097,9.84931 43.30664,13.14454 18.46227,6.15409 42.2,17.58302 73.84961,55.38672 3.48624,4.1641 5.12841,9.84598 6.44922,15.9746 l 0.85742,0 c 0.37084,-29.23629 2.65833,-121.97834 16.85352,-153.64453 16.12176,0 54.55742,0.50845 61.39648,0.59961 0.33993,-1.24513 2.70471,-10.0511 4.33008,-20.38086 l 0,-32.31054 c -2.45562,-23.89988 -7.61411,-66.87966 -10.41992,-89.92188 l -197.32031,0 z m 0.69726,211.15234 c -0.24069,-0.0731 -0.45744,-0.14182 -0.69726,-0.21484 l 0,0.002 c 0.23536,0.0717 0.46102,0.14113 0.69726,0.21289 z" id="lind-bohanon" style="fill:#ffcc00;fill-opacity:1;stroke:none;stroke-width:2;stroke-miterlimit:4;stroke-dasharray:none;stroke-opacity:1"/>
		
    
		<path d="m 730.85742,319.97656 c 0,0 -45.27472,-0.59961 -61.39648,-0.59961 -14.19519,31.66619 -16.48268,124.40824 -16.85352,153.64453 l -0.85742,0 c 2.30778,10.7082 3.62459,22.79311 12.01172,30.6211 10.34532,9.65563 38.25142,72.22121 49.92383,99.01758 l 46.28515,0 c -4.63191,-14.40377 -15.94893,-37.00521 -18.875,-47.53907 -3.25613,-11.72208 -36.46875,-82.05468 -36.46875,-82.05468 0,0 -1.30273,-38.42274 -1.30273,-51.44727 -1.12604,-12.73545 27.5332,-101.64258 27.5332,-101.64258 z m -85.55664,137.07032 c 0.27189,0.32474 0.52907,0.66126 0.7793,1.0039 -0.25,-0.34242 -0.50763,-0.67943 -0.7793,-1.0039 z m 0.96484,1.26562 c 0.13849,0.19613 0.2703,0.39809 0.40235,0.59961 -0.13203,-0.20162 -0.26386,-0.4034 -0.40235,-0.59961 z m 1.25782,2.00781 c 0.0286,0.0514 0.0596,0.10062 0.0879,0.15235 -0.0282,-0.0518 -0.0593,-0.10089 -0.0879,-0.15235 z m 0.93359,1.85742 c 0.054,0.11814 0.10558,0.23811 0.1582,0.35743 -0.0525,-0.11931 -0.10431,-0.2393 -0.1582,-0.35743 z m 0.84766,2.03907 c 0.0144,0.0381 0.0307,0.0751 0.0449,0.11328 -0.0143,-0.0383 -0.0305,-0.0751 -0.0449,-0.11328 z m 1.23047,3.82226 c 0.1443,0.51642 0.28055,1.04082 0.41406,1.56836 -0.13339,-0.52768 -0.26992,-1.05175 -0.41406,-1.56836 z" id="camden industrial" sodipodi:nodetypes="ccccsccsccccccccccccccccccccc" style="fill:#88aa00;fill-opacity:1;stroke:none;stroke-width:2;stroke-miterlimit:4;stroke-dasharray:none;stroke-opacity:1"/>
		
    
		<path d="m 1105.7832,420.96875 0,159.80664 29.9551,-0.9082 20.8398,26.05078 c 0,0 70.3326,-1.30246 82.0547,0 11.7221,1.30245 40.377,39.07285 40.377,50.79492 0,11.72208 32.5605,27.35156 32.5605,27.35156 l 26.0488,-1.92968 0,-261.16602 -231.8359,0 z" id="waite park" style="fill:#ff9955;fill-opacity:1;stroke:none;stroke-width:2;stroke-miterlimit:4;stroke-dasharray:none;stroke-opacity:1"/>
		
    
		<path d="m 1135.7383,579.86719 -29.9551,0.9082 0,194.46094 231.8359,0 0,-93.10156 -26.0488,1.92968 c 0,0 -32.5605,-15.62948 -32.5605,-27.35156 0,-11.72207 -28.6549,-49.49247 -40.377,-50.79492 -11.7221,-1.30246 -82.0547,0 -82.0547,0 l -20.8398,-26.05078 z" id="audubon park" style="fill:#ccff00;fill-opacity:1;stroke:none;stroke-width:2;stroke-miterlimit:4;stroke-dasharray:none;stroke-opacity:1"/>
		
    
		<path d="m 703.36328,420.96875 c -0.0121,0.21446 -0.0391,0.46422 -0.0391,0.65039 0,13.02453 1.30273,51.44727 1.30273,51.44727 0,0 23.78968,50.38901 33.05078,72.9375 l 193.57618,0 0,16.93164 6.51171,0 0,88.5664 -6.51171,0 0,66.42578 174.52933,0 0,-137.15234 0,-159.80664 -402.41996,0 z m -58.0625,36.07813 c 0.27167,0.32445 0.5293,0.66148 0.7793,1.0039 -0.25023,-0.34264 -0.50741,-0.67919 -0.7793,-1.0039 z m 0.96484,1.26562 c 0.13849,0.19621 0.27032,0.39799 0.40235,0.59961 -0.13205,-0.20152 -0.26386,-0.40348 -0.40235,-0.59961 z m 1.25782,2.00781 c 0.0286,0.0515 0.0597,0.1006 0.0879,0.15235 -0.0282,-0.0517 -0.0593,-0.10091 -0.0879,-0.15235 z m 0.93359,1.85742 c 0.0539,0.11813 0.10567,0.23812 0.1582,0.35743 -0.0526,-0.11932 -0.10423,-0.23929 -0.1582,-0.35743 z m 0.84766,2.03907 c 0.0144,0.0382 0.0307,0.075 0.0449,0.11328 -0.0143,-0.0382 -0.0305,-0.0752 -0.0449,-0.11328 z m 1.23047,3.82226 c 0.14414,0.51661 0.28067,1.04068 0.41406,1.56836 -0.13351,-0.52754 -0.26976,-1.05194 -0.41406,-1.56836 z" id="columbia park" style="fill:#ff6600;fill-opacity:1;stroke:none;stroke-width:2;stroke-miterlimit:4;stroke-dasharray:none;stroke-opacity:1"/>
		
    
		<path d="m 1320.6875,775.23633 0.2539,1.30273 -215.1582,0 0,112.00977 237.0723,0 0.1894,0.96679 0.627,-0.96679 0.459,0 0,-0.70899 72.9375,-112.60351 -96.3809,0 z m 22.3574,114.27929 -0.2168,0.33594 1.3028,5.21094 -1.086,-5.54688 z" id="windom park" style="fill:#00ffff;fill-opacity:1;stroke:none;stroke-width:2;stroke-miterlimit:4;stroke-dasharray:none;stroke-opacity:1"/>
		
    
		<path d="m 597.4707,604.47656 0,170.45703 208.28907,0 0,-0.0293 -1.30469,-1.27344 c 0,0 -15.6543,-50.44175 -15.6543,-68.70508 0,-18.26332 -19.56642,-59.13867 -19.5664,-59.13867 l -7.82813,-31.74414 -2.18087,-11.85676 -161.75468,0.76345 z" id="mckinley" sodipodi:nodetypes="cccccsccccc" style="fill:#ff9800;fill-opacity:1;stroke:none;stroke-width:2;stroke-miterlimit:4;stroke-dasharray:none;stroke-opacity:1"/>
		
    
		<path d="m 932.55664,717.38852 0,181.58023 61.63477,0 0,-8.35625 2.30078,0 0,-7.44268 2.76367,0 0,-9.76902 3.68364,0 0,-7.44466 47.4316,0 0,-6.97702 55.4121,0 0,-141.5906 -173.22656,0 z" id="rect4784" style="fill:#ff00ff;fill-opacity:1;stroke:none;stroke-width:2;stroke-miterlimit:4;stroke-dasharray:none;stroke-opacity:1"/>
		
    
		<path d="m 807.33203,776.32617 0,12.96485 -0.86133,0 0.16016,10.42968 3.91211,0 -1.73828,80.44532 5.21875,0.40234 0,8.10742 54.52539,0 0,17.28516 14.40429,0 0,-7.20117 49.60352,0 0,-120.91797 -124,0 -1.22461,-1.51563 z m 8.51367,316.27153 c -0.002,0.037 -0.003,0.077 -0.006,0.1132 0.003,-0.036 0.004,-0.076 0.006,-0.1132 z m -0.10156,0.8281 c -0.007,0.039 -0.009,0.083 -0.0176,0.1211 0.008,-0.038 0.0103,-0.082 0.0176,-0.1211 z" id="bottineau" style="fill:#0000ff;fill-opacity:1;stroke:none;stroke-width:10;stroke-miterlimit:4;stroke-dasharray:none;stroke-opacity:1"/>
		
    
		<path d="m 932.55664,877.15234 0,21.60743 -49.60352,0 0,7.20117 -14.40429,0 0,-17.28516 -54.52539,0 0,23.09375 -0.002,0.14063 -3.47851,1.30468 0,20.4375 -3.47852,0 0,18.26172 -3.04297,0.43555 0,9.13086 -4.3496,0.43555 0.87109,11.30664 -3.04492,0.86914 c -0.51839,7.92986 -0.24805,22.24928 -0.24805,22.24928 l 30.96289,-0.18678 -0.0157,9.1523 166.68954,0 0,-52.79683 -0.30469,0 0,-75.35743 z" id="sheridan" sodipodi:nodetypes="cccccccccccccccccccccccccc" style="fill:#ffcc00;fill-opacity:1;stroke:none;stroke-width:10;stroke-miterlimit:4;stroke-dasharray:none;stroke-opacity:1"/>
		
    
		<path d="m 932.55664,717.38852 0,181.58023 61.63477,0 0,-8.35625 2.30078,0 0,-7.44268 2.76367,0 0,-9.76902 3.68364,0 0,-7.44466 47.4316,0 0,-6.97702 55.4121,0 0,-141.5906 -173.22656,0 z" id="holland" style="fill:#ff00ff;fill-opacity:1;stroke:none;stroke-width:2;stroke-miterlimit:4;stroke-dasharray:none;stroke-opacity:1"/>
		
    
		<path d="M 798.79688 996.1543 L 798.79688 996.22266 L 797.06836 996.22266 C 797.06836 996.22266 798.17853 1023.9092 800.12305 1031.0391 C 800.22408 1031.4095 800.34398 1031.6713 800.47461 1031.8711 C 804.79082 1057.5512 812.58532 1076.4069 815.07031 1086.8105 C 815.06531 1086.7915 815.06329 1086.7749 815.05859 1086.7559 L 815.87109 1086.7129 C 815.87109 1086.7129 852.52327 1134.9046 881.03125 1143.7285 C 881.33367 1144.7753 881.66628 1145.8362 882.01562 1146.9043 L 883.6543 1144.3711 C 883.6543 1144.3711 887.04917 1121.7426 913.07227 1128.5312 C 937.55277 1134.9177 948.14648 1155.6855 948.14648 1155.6855 L 967.38086 1152.293 L 1026.2148 1124.0059 L 1026.2148 1120.6113 L 1028.123 1120.6113 C 1014.4464 1109.1952 993.4043 1062.9082 993.4043 1062.9082 L 991.59961 1005.2051 L 828.21289 1005.2051 L 828.21289 996.1543 L 798.79688 996.1543 z M 815.8457 1092.5977 C 815.8437 1092.6347 815.84284 1092.6747 815.83984 1092.7109 C 815.84284 1092.6749 815.8437 1092.6349 815.8457 1092.5977 z M 815.74414 1093.4258 C 815.73714 1093.4648 815.73516 1093.5088 815.72656 1093.5469 C 815.73456 1093.5089 815.73684 1093.4649 815.74414 1093.4258 z M 815.54688 1094.1504 C 815.53337 1094.1864 815.52612 1094.2284 815.51172 1094.2637 C 815.52602 1094.2287 815.53347 1094.1867 815.54688 1094.1504 z " id="st. anthony west" style="fill:#ff00ff;fill-opacity:1;stroke:none;stroke-width:10;stroke-miterlimit:4;stroke-dasharray:none;stroke-opacity:1"/>
		
    
		<path d="m 1105.7832,858.42773 0,0.55856 -55.4121,0 0,7.07693 -47.4316,0 0,7.54834 -3.68364,0 0,9.90732 -2.76367,0 0,7.54834 -1.91016,0 0,114.15988 112.34957,0 0,-146.79937 -1.1484,0 z" id="rect4840" style="fill:#ccff00;fill-opacity:1;stroke:none;stroke-width:10;stroke-miterlimit:4;stroke-dasharray:none;stroke-opacity:1"/>
		
    
		<path d="M 1417.0449 775.27148 L 1416.5078 776.10156 L 1416.5078 777.94141 L 1415.3164 777.94141 L 1344.1309 887.83984 L 1344.1309 888.54883 L 1343.6719 888.54883 L 1343.0449 889.51562 L 1344.1309 895.0625 L 1342.8281 889.85156 L 1343.0449 889.51562 L 1342.8555 888.54883 L 1107.1191 888.54883 L 1107.1191 1004.0742 L 1212.1777 1004.0742 C 1225.9241 965.18082 1254.9304 942.97656 1271.7383 942.97656 C 1288.7099 942.97656 1348.6765 972.39374 1381.4883 970.13086 C 1414.3 967.86798 1439.19 959.94663 1449.373 949.76367 C 1459.3939 939.74281 1547.4541 892.92626 1550.2812 891.42383 L 1554.9531 888.08789 L 1554.9531 887.00586 L 1436.541 887.00586 L 1436.541 775.27148 L 1417.0449 775.27148 z " id="northeast park" style="fill:#d40000;fill-opacity:1;stroke:none;stroke-width:1;stroke-miterlimit:4;stroke-dasharray:none;stroke-opacity:1"/>
		
    
		<path d="m 1086.1328,1513.1719 c -0.2334,0.8996 -0.3008,1.6133 -0.3008,1.6133 0,0 17.1931,33.3107 18.2676,39.2207 1.0746,5.9101 19.3426,41.908 23.1035,42.4453 3.146,0.4493 -9.867,11.4225 -13.8945,21.289 l 4.3926,6.2989 c 0,0 21.2695,17.2306 21.2695,21.1464 0,3.9158 17.4727,36.8086 17.4727,36.8086 0.6978,0.9176 1.397,1.8144 2.0957,2.7247 -0.1256,-0.3158 -0.4723,-1.1759 -0.5762,-1.4376 l 23.5586,0 c 0,0 50.1496,25.8339 61.5469,27.3536 11.3973,1.5196 63.0653,0.7596 77.5019,2.2793 14.4366,1.5196 58.5048,7.5979 99.5352,4.5586 0.8696,-0.064 1.7421,-0.1541 2.6152,-0.2598 0.3461,-0.042 0.6925,-0.096 1.0391,-0.1445 0.5484,-0.076 1.0972,-0.1525 1.6464,-0.2442 0.3651,-0.061 0.7305,-0.1317 1.0958,-0.1992 0.537,-0.099 1.0737,-0.2032 1.6113,-0.3164 0.358,-0.075 0.716,-0.1549 1.0742,-0.2363 0.5273,-0.1199 1.0546,-0.2463 1.582,-0.3789 0.3854,-0.097 0.7709,-0.1953 1.1563,-0.2989 0.5176,-0.139 1.0353,-0.2869 1.5527,-0.4375 0.3752,-0.1092 0.75,-0.2168 1.125,-0.332 0.5624,-0.1727 1.1238,-0.3554 1.6856,-0.541 0.3196,-0.1056 0.6396,-0.2067 0.9589,-0.3164 0.8103,-0.2783 1.6198,-0.5697 2.4278,-0.8731 0.072,-0.027 0.1447,-0.051 0.2168,-0.078 0,-5e-4 0,0 0,0 22.5761,-8.5422 44.0415,-26.5268 56.291,-38.0352 -0.6941,-0.6371 -58.5816,-53.797 -82.0801,-84.2383 -23.6401,-30.6246 -60.7129,-74.1445 -60.7129,-74.1445 l -6.9843,0.5371 c 0,0 -34.3859,26.8633 -43.5196,26.8633 l -153.123,0 c 0,0 -40.2953,-13.9683 -51.5781,-27.9375 -0.8486,-1.0506 -1.6284,-1.9239 -2.3653,-2.6875 l -9.6914,0 z" id="seward" style="fill:#e5ff80;fill-rule:evenodd;stroke:none;stroke-width:10;stroke-linecap:butt;stroke-linejoin:miter;stroke-miterlimit:4;stroke-dasharray:none;stroke-opacity:1"/>
		
  
	</g>
	

</svg>
